<svg width="69" height="39" viewBox="0 0 69 39" fill="none" xmlns="http://www.w3.org/2000/svg">
<path d="M36.7104 17.4444V17.1944H36.4604H3.38222C3.27244 17.1944 3.16413 17.2003 3.0577 17.2118C1.78734 17.3485 0.75 18.2945 0.75 19.5C0.75 20.7055 1.78734 21.6515 3.0577 21.7882C3.16413 21.7997 3.27244 21.8056 3.38222 21.8056H36.4604H36.7104V21.5556V17.4444ZM44.3052 21.5556V21.8056H44.5552H65.6178C67.0356 21.8056 68.25 20.8067 68.25 19.5C68.25 18.1933 67.0356 17.1944 65.6178 17.1944H44.5552H44.3052V17.4444V21.5556ZM16.3657 1V0.75H16.1157H3.38222C3.27244 0.75 3.16413 0.755886 3.0577 0.767338C1.78734 0.904027 0.75 1.85002 0.75 3.05556C0.75 4.26109 1.78734 5.20708 3.0577 5.34377C3.16413 5.35523 3.27244 5.36111 3.38222 5.36111H16.1157H16.3657V5.11111V1ZM23.9605 5.11111V5.36111H24.2105H65.6178C67.0356 5.36111 68.25 4.36221 68.25 3.05556C68.25 1.7489 67.0356 0.75 65.6178 0.75H24.2105H23.9605V1V5.11111ZM17.4822 33.8889V33.6389H17.2322H3.38222C3.27245 33.6389 3.16414 33.6448 3.0577 33.6562C1.78734 33.7929 0.75 34.7389 0.75 35.9444C0.75 37.15 1.78734 38.096 3.05769 38.2327C3.16413 38.2441 3.27244 38.25 3.38222 38.25H17.2322H17.4822V38V33.8889ZM25.7205 38V38.25H25.9705H65.6178C67.0356 38.25 68.25 37.2511 68.25 35.9444C68.25 34.6378 67.0356 33.6389 65.6178 33.6389H25.9705H25.7205V33.8889V38Z" fill="white" stroke="white" stroke-width="0.5"/>
</svg>
